<?xml version="1.0" encoding="UTF-8" standalone="no"?>
<!-- Created with Inkscape (http://www.inkscape.org/) -->

<svg
   xmlns:dc="http://purl.org/dc/elements/1.1/"
   xmlns:cc="http://creativecommons.org/ns#"
   xmlns:rdf="http://www.w3.org/1999/02/22-rdf-syntax-ns#"
   xmlns:svg="http://www.w3.org/2000/svg"
   xmlns="http://www.w3.org/2000/svg"
   xmlns:sodipodi="http://sodipodi.sourceforge.net/DTD/sodipodi-0.dtd"
   xmlns:inkscape="http://www.inkscape.org/namespaces/inkscape"
   width="701.81726"
   height="440.78156"
   id="svg3006"
   version="1.1"
   inkscape:version="0.48.5 r10040"
   sodipodi:docname="christiansand_brygghus.svg"
   inkscape:export-filename="/home/vegard/AndroidStudioProjects/TabKeeper/gfx/christiansand_brygghus.png"
   inkscape:export-xdpi="120.11814"
   inkscape:export-ydpi="120.11814">
  <defs
     id="defs3008" />
  <sodipodi:namedview
     id="base"
     pagecolor="#ffffff"
     bordercolor="#666666"
     borderopacity="1.0"
     inkscape:pageopacity="0"
     inkscape:pageshadow="2"
     inkscape:zoom="0.49497475"
     inkscape:cx="9.8442325"
     inkscape:cy="-14.075506"
     inkscape:document-units="px"
     inkscape:current-layer="layer1"
     showgrid="false"
     inkscape:snap-grids="true"
     inkscape:window-width="1362"
     inkscape:window-height="730"
     inkscape:window-x="0"
     inkscape:window-y="18"
     inkscape:window-maximized="0"
     fit-margin-top="0"
     fit-margin-left="0"
     fit-margin-right="0"
     fit-margin-bottom="0">
    <inkscape:grid
       empspacing="5"
       visible="true"
       enabled="true"
       snapvisiblegridlinesonly="true"
       type="xygrid"
       id="grid3021"
       originx="-18.182745px"
       originy="-519.21845px" />
  </sodipodi:namedview>
  <metadata
     id="metadata3011">
    <rdf:RDF>
      <cc:Work
         rdf:about="">
        <dc:format>image/svg+xml</dc:format>
        <dc:type
           rdf:resource="http://purl.org/dc/dcmitype/StillImage" />
        <dc:title></dc:title>
      </cc:Work>
    </rdf:RDF>
  </metadata>
  <g
     inkscape:groupmode="layer"
     id="layer2"
     inkscape:label="Background"
     style="display:inline"
     transform="translate(-18.182745,-92.362152)" />
  <g
     inkscape:label="Layer 1"
     inkscape:groupmode="layer"
     id="layer1"
     transform="translate(-18.182745,-92.362152)">
    <path
       style="fill:#808050;fill-opacity:1"
       d="m 170.93432,423.61428 c -6.99261,-2.93833 -22.91173,-5.60251 -29.75,-4.97887 -2.6125,0.23825 -4.74232,0.16174 -4.73293,-0.17002 0.0554,-1.95693 21.98096,-9.40036 36.90786,-12.52971 41.10215,-8.61685 88.89395,-11.22863 182.57507,-9.97754 101.11734,1.35039 114.81037,1.20336 128.49999,-1.37969 27.59204,-5.20626 47.9033,-15.29711 58.96919,-29.29651 2.21695,-2.80465 4.03081,-5.45367 4.03081,-5.88672 0,-0.43305 -1.9172,-0.57127 -4.26044,-0.30715 -9.6902,1.09222 -19.77913,-5.08943 -21.26916,-13.03197 -2.30349,-12.27869 4.92181,-22.68162 15.75936,-22.69018 9.74209,-0.008 16.30693,5.09368 17.70256,13.75624 l 0.76367,4.74002 1.65201,-3.71788 c 3.42276,-7.70303 0.75622,-17.40129 -6.208,-22.57863 -12.60325,-9.3695 -17.15364,-17.29098 -17.14495,-29.8465 0.004,-5.35042 -0.36226,-7.28392 -1.45827,-7.7045 -1.04704,-0.40179 -1.64418,0.4031 -2.09944,2.82985 -0.47577,2.53604 -1.34396,3.63806 -3.44245,4.3696 -3.35308,1.16889 -3.3225,1.07643 -6.00353,18.14806 -5.56874,35.45931 -6.77564,40.54345 -11.56403,48.71421 -4.99867,8.5296 -10.88723,12.28579 -19.26035,12.28579 -12.53563,0 -16.42886,-11.64997 -12.36479,-37 6.12007,-38.17455 6.10983,-38 2.22919,-38 -1.48704,0 -2.03138,-0.6541 -2.03138,-2.44098 0,-1.34254 0.47874,-2.73686 1.06386,-3.09849 1.07477,-0.66424 25.06566,-3.69434 25.47702,-3.2178 0.12214,0.1415 0.005,1.68243 -0.26073,3.42429 -0.35298,2.31552 -1.13686,3.33118 -2.91548,3.77759 -1.33798,0.33581 -2.85997,1.61065 -3.3822,2.83298 -1.4777,3.45868 -8.07076,48.18446 -8.28815,56.22491 -0.22164,8.19744 0.96769,10.4975 5.42812,10.4975 7.5798,0 10.83741,-8.3879 16.36083,-42.12684 4.24517,-25.93094 4.36215,-28.61399 1.26673,-29.05361 -2.15778,-0.30645 -2.501,-1.77341 -1.27687,-5.4575 0.22063,-0.66402 4.1574,-1.43707 9.45249,-1.85616 4.99091,-0.39502 9.07438,-1.0507 9.07438,-1.45706 0,-0.40637 -0.94788,-1.5961 -2.10641,-2.64384 -2.59926,-2.35072 -5.40457,-7.77135 -6.39562,-12.35812 l -0.74611,-3.45313 -2.0176,3.95313 c -2.87603,5.63505 -6.2384,8.45313 -10.08578,8.45313 -4.38589,0 -5.65029,-1.55843 -5.63871,-6.95 0.0128,-5.96886 3.66653,-13.6806 8.48691,-17.91295 3.11577,-2.73568 4.40003,-3.25323 7.01832,-2.82834 3.17933,0.51593 3.21825,0.47134 4.91503,-5.63165 3.51708,-12.65025 12.91437,-26.37802 17.417,-25.44314 4.49186,0.93265 -2.40686,19.23691 -11.42148,30.30443 -4.13434,5.07586 -4.42555,5.82665 -4.42555,11.41 0,7.08279 2.94646,15.71328 6.50628,19.05755 1.36721,1.28443 2.65123,2.14605 2.85338,1.91471 0.20215,-0.23134 1.61221,-3.22605 3.13347,-6.65492 1.78134,-4.0151 4.51132,-7.86693 7.66917,-10.82074 8.60518,-8.04914 17.65064,-10.65015 29.35648,-8.44142 l 6.65811,1.2563 -0.66019,7.12008 c -0.3631,3.91605 -0.88322,7.90759 -1.15583,8.87009 -1.66695,5.88556 8.79838,-5.15347 12.97808,-13.68954 1.55045,-3.16644 3.3069,-8.38069 3.90322,-11.58723 2.65004,-14.24988 -7.50997,-22.98951 -23.24217,-19.99289 -6.27027,1.19434 -14.56019,4.96917 -18.17082,8.27411 -4.85325,4.44237 -5.93481,5.18066 -5.32798,3.63698 0.93653,-2.38238 11.73162,-9.77557 17.4988,-11.98433 10.16413,-3.89275 23.24584,-3.47124 28.57568,0.92073 4.45006,3.66701 5.82563,7.09821 5.71533,14.25627 -0.22628,14.68453 -11.06581,29.36781 -28.2656,38.28868 -6.63174,3.43963 -12.79642,5.7381 -16.48453,6.14616 -1.12248,0.1242 -2.37838,0.28324 -2.79088,0.35344 -2.23374,0.3801 0.14949,4.02499 7.84861,12.00356 11.47478,11.89127 13.33464,15.04187 13.3554,22.62406 0.0415,15.15659 -6.76411,30.00351 -17.22758,37.58322 -2.14645,1.55487 -5.46706,5.43473 -7.37914,8.62191 -4.33844,7.23158 -8.16539,11.28092 -15.94429,16.87079 -21.62561,15.54006 -60.06573,24.60566 -97.79245,23.06307 -8.3108,-0.33981 -28.83554,-0.90908 -45.61054,-1.26505 -69.40807,-1.47282 -143.77256,6.60701 -199.60234,21.68712 -8.02051,2.16642 -14.65361,3.88794 -14.74021,3.8256 -0.0866,-0.0623 -2.85745,-1.24788 -6.15745,-2.63456 z m 373.02159,-72.82937 c 3.42575,-1.62563 6.4784,-6.51367 6.4784,-10.37352 0,-6.00596 -5.72841,-11.04921 -12.55034,-11.04921 -5.10473,0 -10.44966,5.29546 -10.44966,10.35295 0,5.07686 1.66147,8.05604 5.84594,10.48235 4.40102,2.55187 6.31407,2.65714 10.67566,0.58743 z m 14.4784,-71.50601 c 2.475,-0.56891 7.0875,-2.19437 10.25,-3.61212 5.58122,-2.50206 5.75,-2.69259 5.75,-6.49082 0,-15.23209 -17.45577,-17.66376 -22.41068,-3.12191 -2.36985,6.95515 -1.97284,14.3423 0.76767,14.28368 0.62865,-0.0134 3.16801,-0.48992 5.64301,-1.05883 z m -44.72218,-10.92061 c 5.50855,-4.33303 9.87279,-19.96638 6.3825,-22.86307 -2.47461,-2.05374 -5.15921,-0.47653 -7.89343,4.63743 -3.61408,6.75964 -5.23403,14.03832 -3.89025,17.47953 1.28084,3.28004 2.04552,3.38567 5.40118,0.74611 z m 19.17723,-31.86522 c 6.94857,-10.81423 10.64372,-22.68174 6.8339,-21.94803 -2.53297,0.48781 -6.90598,8.20673 -10.29608,18.17392 -4.73972,13.9352 -3.75585,15.00771 3.46218,3.77411 z m -393.106,161.40192 c 0.35803,-0.93301 0.65096,-2.55958 0.65096,-3.6146 0,-1.05501 0.64991,-1.91821 1.44424,-1.91821 0.79433,0 2.6027,-1.0125 4.0186,-2.25 3.07708,-2.68936 3.34357,-3.96891 10.53158,-50.56696 5.48763,-35.57496 5.49274,-36.18304 0.30368,-36.18304 -2.24817,0 -2.39783,-0.27624 -1.76074,-3.25 0.38295,-1.7875 0.78304,-3.35183 0.88908,-3.47629 0.10605,-0.12446 9.16598,-1.12695 20.13319,-2.22776 13.79604,-1.38475 21.14413,-1.72176 23.84699,-1.0937 16.01263,3.72083 10.60598,34.60633 -8.07959,46.15464 l -3.43042,2.12013 4.98731,2.31066 c 8.97588,4.15858 12.57794,13.07489 10.10921,25.02365 -1.66066,8.03772 -4.99836,14.30722 -10.04305,18.8648 -6.43031,5.80941 -10.71468,7.16243 -28.45008,8.98468 -8.8,0.90416 -18.20543,1.90819 -20.90096,2.23116 -4.32701,0.51846 -4.82473,0.38857 -4.25,-1.10916 z m 35.62178,-10.01772 c 4.27874,-2.21263 6.8546,-6.51256 9.05486,-15.11548 2.33013,-9.11073 2.48817,-14.23404 0.57995,-18.80104 -1.81263,-4.33824 -5.14914,-6.59857 -9.74024,-6.59857 -3.57239,0 -3.71018,0.13501 -4.33756,4.25 -0.35638,2.3375 -1.30722,8.25308 -2.11297,13.14573 -0.80575,4.89266 -1.74095,12.16018 -2.07822,16.15005 -0.55433,6.5577 -0.43188,7.30078 1.27508,7.73826 3.34536,0.8574 4.43409,0.74363 7.3591,-0.76895 z m 5.52918,-49.78154 c 9.27304,-5.17795 14.78279,-27.75938 8.4355,-34.57241 -2.10929,-2.26405 -8.61031,-3.93262 -9.8824,-2.53644 -0.43863,0.48141 -2.00818,8.7503 -3.48789,18.3753 -1.47971,9.625 -2.91754,18.2875 -3.19518,19.25 -0.72413,2.51035 3.15012,2.26424 8.12997,-0.51645 z m 22.82886,52.17264 c 0.3541,-1.3234 0.64997,-2.6891 0.65748,-3.03487 0.008,-0.34577 1.34114,-1.17855 2.96364,-1.8506 3.52342,-1.45945 3.36988,-0.83068 9.0398,-37.02072 4.81891,-30.75826 4.81894,-30.75892 1.43382,-31.60853 -2.19403,-0.55067 -2.47878,-1.03551 -1.91871,-3.267 0.36172,-1.4412 0.76653,-2.72924 0.89959,-2.86229 0.40106,-0.40106 18.47674,-2.28151 28.13364,-2.9268 8.52606,-0.56973 9.19474,-0.46886 11.80235,1.78034 7.51588,6.48281 3.93826,26.9791 -6.32814,36.25418 l -3.92812,3.54881 2.89658,13.49182 c 2.92359,13.61762 4.29072,17.58947 6.05439,17.58947 1.22678,0 1.27228,5.69195 0.0515,6.44641 -0.50231,0.31044 -4.2514,0.84661 -8.33132,1.19149 l -7.41803,0.62705 -2.73426,-13.88247 c -3.72822,-18.92918 -4.43288,-21.38248 -6.14162,-21.38248 -0.8038,0 -1.46146,0.16238 -1.46146,0.36085 0,0.19847 -0.89523,6.16097 -1.98941,13.25 -2.48654,16.11 -2.48672,16.38915 -0.0106,16.38915 1.60342,0 2,0.66667 2,3.36207 l 0,3.36207 -7.75,0.68049 c -4.2625,0.37427 -10.18336,0.95663 -13.15748,1.29412 -5.3366,0.60559 -5.39903,0.58209 -4.76365,-1.79256 z m 34.80372,-46.0365 c 3.99606,-2.79094 7.08742,-10.2774 7.63755,-18.49611 0.42142,-6.29569 0.22948,-7.37397 -1.64655,-9.25 -2.17564,-2.17564 -5.61915,-2.7302 -7.91368,-1.27447 -0.74865,0.47497 -2.1182,6.23945 -3.26316,13.73469 -1.08518,7.10391 -2.23197,14.17227 -2.54842,15.70747 -0.54462,2.6421 -0.42367,2.75455 2.26315,2.10417 1.56119,-0.3779 4.02319,-1.51449 5.47111,-2.52575 z m 29.86742,38.67723 c 0,-1.80409 0.89455,-2.87758 3.38122,-4.05758 3.72573,-1.76797 4.24297,-3.42207 6.71983,-21.48934 l 1.16528,-8.5 -4.66462,-17.45601 c -2.56554,-9.60081 -5.32546,-18.18624 -6.13316,-19.07874 -0.8077,-0.8925 -1.46855,-2.77472 -1.46855,-4.1827 0,-2.88747 1.23981,-3.28388 13.5,-4.31639 3.85,-0.32423 8.0125,-0.79533 9.25,-1.04689 1.71644,-0.34891 2.25,0.002 2.25,1.47989 0,3.27345 -1.12433,5.10084 -3.13837,5.10084 -1.05842,0 -2.19173,0.69665 -2.51847,1.54812 -0.73537,1.91634 5.69536,27.54611 6.74828,26.89537 0.89399,-0.55252 14.61771,-25.95175 15.46546,-28.62275 0.43567,-1.37268 0.0528,-1.82074 -1.55593,-1.82074 -1.73141,0 -2.07414,-0.51115 -1.81739,-2.71045 0.35966,-3.08086 2.60341,-4.0311 9.89323,-4.18987 4.53365,-0.0987 4.57265,-0.0714 4.1365,2.90032 -0.24217,1.65 -0.77944,3 -1.19392,3 -1.22633,0 -5.72182,7.32349 -15.3028,24.92945 -8.83153,16.22877 -9.05535,16.80775 -10.85169,28.07055 -2.51719,15.78249 -2.47171,17 0.6351,17 1.93046,0 2.49651,0.51258 2.48469,2.25 -0.0263,3.86059 -1.20923,4.4565 -11.15513,5.61935 -14.60382,1.70745 -15.82956,1.60505 -15.82956,-1.32243 z m 57.0238,-4.71845 c -4.25819,-2.91057 -7.64712,-7.78838 -9.19141,-13.22951 -1.76549,-6.22053 -1.25596,-20.89615 1.09711,-31.59896 6.10804,-27.78217 21.30025,-41.32575 43.27629,-38.58003 7.84236,0.97984 7.79725,0.91169 6.51138,9.83732 -1.08747,7.54851 -1.1857,7.74271 -3.91631,7.74271 -2.58219,0 -2.80086,-0.30019 -2.80086,-3.84501 0,-5.45388 -2.59456,-7.57351 -8.46107,-6.91227 -8.63333,0.9731 -12.92924,6.03541 -16.94096,19.96329 -2.655,9.21762 -5.59797,27.82054 -5.59797,35.38555 0,7.00619 1.94699,13.3276 4.65047,15.09899 2.26403,1.48345 6.88149,2.11082 7.91668,1.07564 0.96948,-0.96949 3.5317,-18.09324 3.23644,-21.62976 -0.2419,-2.89748 -0.76112,-3.70141 -2.55514,-3.95618 -1.89329,-0.26888 -2.14935,-0.74622 -1.60932,-3 0.35322,-1.47414 0.74326,-2.80709 0.86674,-2.96211 0.47364,-0.59461 18.61899,-2.42661 19.11564,-1.92997 0.288,0.288 -0.63402,7.95214 -2.04894,17.03141 -1.41491,9.07928 -2.57257,16.96429 -2.57257,17.52225 0,1.93019 -11.40766,5.36115 -19.5,5.8648 -7.23245,0.45013 -8.33352,0.26994 -11.4762,-1.87816 z m 53.00324,-4.51151 c -10.55219,-5.52062 -14.19268,-19.63631 -10.51028,-40.75272 3.98923,-22.87597 12.57924,-36.42893 26.40389,-41.65898 4.67624,-1.76908 7.08697,-2.03519 14.89335,-1.644 5.1227,0.25671 9.65203,0.86544 10.06517,1.35274 0.41314,0.4873 0.11261,4.3735 -0.66785,8.636 -1.38014,7.53767 -1.49769,7.75 -4.29017,7.75 -2.62975,0 -2.82276,-0.24196 -2.29558,-2.87783 1.23006,-6.1503 -3.79043,-9.96268 -10.67756,-8.10817 -8.50618,2.29048 -12.29388,8.4265 -16.57811,26.8563 -2.99984,12.90464 -4.25707,32.91151 -2.41828,38.4831 1.45494,4.4085 4.83969,6.91566 8.73374,6.46926 2.77247,-0.31783 2.84238,-0.49142 4.66601,-11.58729 1.01826,-6.19555 1.59488,-11.93305 1.28139,-12.75 -0.3135,-0.81696 -1.51262,-1.48537 -2.66473,-1.48537 -1.76092,0 -2.04481,-0.51794 -1.78139,-3.25 l 0.31336,-3.25 9.76572,-0.90094 c 5.37115,-0.49552 9.9308,-0.72052 10.13255,-0.5 0.25869,0.28275 -4.79665,33.91123 -5.34557,35.55914 -0.029,0.087 -2.8652,1.12224 -6.3027,2.30051 -9.03879,3.09825 -18.33499,3.65392 -22.72296,1.35825 z m 32.98661,-3.62983 c 0.037,-3.2184 1.4065,-5.57576 3.55197,-6.11424 1.30716,-0.32808 2.78286,-1.37869 3.27934,-2.3347 1.38573,-2.66831 10.5368,-62.80097 9.83533,-64.62897 -0.33964,-0.88507 -1.53164,-1.60922 -2.64891,-1.60922 -2.10393,0 -2.40927,-0.98991 -1.43048,-4.63762 0.51633,-1.92425 1.51998,-2.20858 10.05457,-2.84844 5.21454,-0.39095 9.64935,-0.54246 9.85513,-0.33668 0.20577,0.20578 -0.72015,7.33758 -2.05762,15.84844 -1.33746,8.51087 -2.43653,15.8118 -2.44237,16.2243 -0.0123,0.86804 6.51635,0.98404 9.5484,0.16966 1.80543,-0.48492 2.27881,-2.07726 3.84384,-12.92999 0.98166,-6.80733 1.49105,-12.85232 1.13198,-13.43332 -0.35908,-0.58099 -1.52631,-1.05635 -2.59385,-1.05635 -1.3912,0 -1.94098,-0.69141 -1.94098,-2.44098 0,-1.34254 0.43902,-2.71232 0.9756,-3.04394 1.10425,-0.68246 25.2349,-3.63791 25.72241,-3.1504 0.17373,0.17373 0.0388,1.70125 -0.29985,3.39449 -0.42582,2.1291 -1.34433,3.26149 -2.97808,3.67153 -1.2993,0.3261 -2.79809,1.40709 -3.33066,2.40219 -0.95933,1.79253 -10.08943,58.83229 -10.08943,63.03313 0,1.61174 0.76263,2.33651 2.91064,2.76611 2.69774,0.53955 2.83921,0.78699 1.93421,3.3831 -0.55112,1.58093 -1.92783,3.02523 -3.16064,3.3158 -3.36532,0.79322 -17.6842,1.96248 -17.6842,1.44407 0,-0.25293 1.37056,-9.13524 3.04568,-19.73847 1.67512,-10.60323 2.86892,-19.45536 2.65289,-19.67139 -0.21604,-0.21604 -2.81263,-0.0445 -5.77021,0.38109 l -5.37742,0.77389 -2.21912,13.48989 c -2.93454,17.83886 -2.92774,18.62351 0.16818,19.40053 1.96723,0.49375 2.5,1.26272 2.5,3.60841 0,1.71659 -0.53018,2.98214 -1.25,2.98377 -1.27889,0.003 -16.65144,1.672 -22.5,2.443 -2.0864,0.27504 -3.24511,0.003 -3.23635,-0.75869 z M 225.80014,298.44358 c -4.32401,-2.63665 -7.86858,-7.60262 -9.90711,-13.87992 -1.402,-4.31724 -1.62224,-7.65084 -1.18919,-18 0.91134,-21.77951 8.4519,-40.8498 21.57591,-54.56611 5.18271,-5.4166 14.93021,-10.63338 19.87064,-10.63459 5.07099,-10e-4 10.24587,3.00428 12.38194,7.19132 3.64086,7.13668 1.95384,21.92459 -3.57805,31.36405 -5.7415,9.79713 -16.76877,13.73351 -21.55331,7.69384 -1.89307,-2.38967 -2.1198,-3.66721 -1.7304,-9.75 0.30763,-4.80556 1.29094,-8.77479 3.13662,-12.66136 2.84473,-5.99034 9.45276,-12.84116 12.38001,-12.8349 1.15635,0.002 0.64117,0.67804 -1.52356,1.99787 -6.86721,4.18695 -11.83006,15.74067 -11.00985,25.63135 0.52492,6.32981 2.24568,8.36704 7.06729,8.36704 6.76492,0 12.75715,-8.38738 14.89371,-20.84687 3.86014,-22.51061 -11.94018,-31.37507 -27.57431,-15.47003 -19.46894,19.80631 -26.2936,68.74546 -11.55573,82.86524 3.99506,3.8275 11.87285,4.55178 17.61973,1.61994 8.71563,-4.44638 15.37082,-15.53128 16.11225,-26.83658 0.40335,-6.15021 0.17074,-7.58874 -1.63777,-10.12856 -2.63976,-3.70721 -4.82116,-4.29453 -9.75372,-2.62609 -5.12294,1.73286 -10.58287,7.96622 -13.74315,15.68996 -1.40268,3.42815 -2.57225,5.29238 -2.59905,4.14272 -0.0268,-1.14965 1.32813,-4.84561 3.01096,-8.21324 6.06561,-12.13837 18.55005,-17.87691 25.63456,-11.78307 2.60009,2.23651 2.80576,2.95122 2.80576,9.75001 0,6.16742 -0.50587,8.40441 -3.1744,14.03729 -3.67182,7.75072 -9.93145,14.46189 -16.4174,17.60169 -5.92417,2.86784 -15.08236,2.99859 -19.54238,0.279 z m 88.90723,-4.79278 c -2.39002,-3.65485 -2.18929,-16.67739 0.37439,-24.28862 1.46663,-4.35421 2.34441,-5.5696 4.21355,-5.8341 1.49829,-0.21201 2.11702,0.0607 1.69331,0.74625 -0.36723,0.59418 -0.83348,1.86952 -1.03611,2.83409 -0.20264,0.96457 -1.10258,4.56407 -1.99988,7.9989 -2.21123,8.46447 -2.27261,15.45471 -0.16397,18.6729 1.44795,2.20985 1.47559,2.58196 0.19177,2.58196 -0.825,0 -2.29788,-1.22012 -3.27306,-2.71138 z m -48.76856,-2.53862 c 0.37416,-2.3375 2.18818,-11.9 4.03116,-21.25 4.08796,-20.73953 6.98081,-30.50001 9.03971,-30.50001 1.10194,0 1.25704,0.46011 0.58992,1.75 -0.94702,1.83109 -5.71344,22.20519 -6.60895,28.25001 -1.23467,8.33422 -1.52366,11 -1.19247,11 0.19414,0 1.98701,-2.46102 3.98415,-5.46894 3.87754,-5.83999 8.52528,-9.02344 11.70197,-8.0152 2.68829,0.85323 2.52673,4.87102 -0.54998,13.67725 -4.21296,12.05843 -2.88747,15.64218 3.3574,9.07745 3.02998,-3.18517 3.96,-5.15578 4.93785,-10.46272 0.66261,-3.59614 1.20475,-8.12157 1.20475,-10.05651 0,-2.71187 0.47234,-3.64159 2.06117,-4.05708 2.7949,-0.73088 3.49123,1.51863 2.00532,6.47818 -0.66281,2.21225 -0.94892,4.27847 -0.6358,4.59159 0.31312,0.31312 0.56931,-0.0926 0.56931,-0.90157 0,-2.50412 5.873,-10.8797 8.24793,-11.76251 3.40697,-1.26644 4.39214,-0.40382 4.36745,3.82414 -0.0156,2.67726 -0.59904,4.20913 -1.91631,5.03178 -2.49981,1.56116 -3.15381,0.72663 -2.85916,-3.64843 0.22108,-3.2827 0.0873,-3.49192 -1.42834,-2.23404 -2.2145,1.83787 -7.79693,14.19603 -9.36468,20.73116 -1.38999,5.79411 -2.32484,6.88399 -4.19113,4.88612 -1.05603,-1.13048 -1.80691,-0.98493 -4.5611,0.88411 -3.87276,2.62813 -7.05661,2.18155 -8.33027,-1.16843 -0.86344,-2.27103 -0.0399,-6.17037 3.65696,-17.31452 1.90022,-5.72822 0.5005,-7.48876 -3.20293,-4.02859 -4.22305,3.94566 -10.19611,14.98931 -10.78299,19.93676 -0.29359,2.475 -0.55666,4.6125 -0.58461,4.75 -0.0279,0.1375 -0.99037,0.25 -2.13872,0.25 -1.89639,0 -2.0255,-0.38981 -1.40761,-4.25 z m 56.71802,-1.3067 c -3.31182,-2.31969 -2.93507,-6.66593 0.85422,-9.85441 2.98928,-2.51531 5.92327,-3.40478 5.92327,-1.79569 0,0.43627 -1.4625,1.22377 -3.25,1.75 -2.53151,0.74528 -3.32124,1.57812 -3.57226,3.76727 -0.64509,5.62597 5.05882,7.65109 10.1874,3.61695 4.12292,-3.24309 3.55347,-6.93376 -1.73898,-11.27053 -5.96476,-4.88767 -6.37706,-7.10599 -2.1132,-11.36985 2.97543,-2.97543 3.94728,-3.36687 7.68789,-3.09652 4.63362,0.3349 6.11823,2.51516 3.69822,5.43109 -1.1056,1.33217 -1.4409,1.19189 -2.64526,-1.10672 -1.10881,-2.11624 -1.98423,-2.57174 -4.46565,-2.32357 -1.69755,0.16977 -3.58184,1.12183 -4.18731,2.11568 -1.15434,1.8948 0.80059,4.22589 7.77562,9.27177 5.12942,3.71073 2.92284,10.93755 -4.46492,14.6232 -4.30637,2.14838 -6.875,2.21236 -9.68904,0.24133 z m 38.61191,-0.1933 c -2.41855,-2.8684 -3.71281,-8.83875 -2.81323,-12.9773 0.45103,-2.07498 1.33809,-6.36037 1.97123,-9.52307 1.15488,-5.76884 3.01566,-8.74963 5.46204,-8.74963 1.05718,0 1.0263,0.82444 -0.15917,4.25 -2.18246,6.30651 -4.48385,20.56742 -3.72271,23.06833 0.36519,1.19992 1.3555,2.96917 2.20069,3.93167 1.35163,1.53924 1.35605,1.75 0.0367,1.75 -0.825,0 -2.164,-0.7875 -2.97556,-1.75 z m -15.453,-3.79063 c -1.99124,-3.03902 -1.5289,-12.00751 1.17258,-22.74541 0.93899,-3.73232 1.52754,-6.96577 1.30788,-7.18542 -0.21965,-0.21965 -3.76593,0.0368 -7.88062,0.56994 -12.51191,1.62109 -17.91866,-0.4927 -14.52159,-5.67728 1.69519,-2.58718 8.70801,-6.4279 11.54033,-6.3203 1.33333,0.0506 1.33333,0.11519 0,0.58082 -8.5088,2.97148 -13.10641,7.36889 -9.85701,9.4278 1.91399,1.21276 12.51115,0.95112 17.82113,-0.44001 4.26943,-1.11852 4.55628,-1.43119 6.57748,-7.16952 1.58516,-4.50037 2.64294,-6.07811 4.23217,-6.31251 l 2.1188,-0.31251 -1.99613,5.67933 c -1.09787,3.12364 -1.81162,5.86385 -1.58611,6.08936 0.22551,0.2255 14.98544,-3.22466 32.79984,-7.66703 40.3286,-10.05672 48.21104,-10.982 50.89132,-5.97386 1.42962,2.67128 -0.74784,6.7683 -5.97527,11.24278 -4.4878,3.84139 -4.71079,4.81354 -2.18887,9.54265 l 1.75352,3.2882 3.40241,-2.29289 c 2.91175,-1.96222 3.41745,-2.89201 3.50665,-6.44726 0.11661,-4.64808 1.81041,-7.33626 4.62251,-7.33626 2.17259,0 2.52511,2.99025 0.69752,5.91669 -0.96199,1.54038 -0.70905,2.96997 1.36879,7.73644 1.40185,3.21578 2.83311,6.6718 3.18056,7.68004 1.01676,2.95038 2.65969,1.48902 4.52692,-4.02664 3.67657,-10.8603 13.18134,-18.53276 17.10376,-13.80653 0.68469,0.825 2.08979,1.5 3.12244,1.5 2.39699,0 2.36024,0.66521 -0.63486,11.49298 -2.92486,10.57382 -3.06494,13.21157 -0.83259,15.67829 1.37416,1.51844 1.40659,1.82874 0.19113,1.82874 -2.61481,0 -5.0008,-2.52124 -5.7217,-6.04604 -0.57017,-2.78784 -1.27213,-3.56184 -3.66484,-4.041 l -2.95958,-0.59268 3.49967,-0.41014 c 3.37046,-0.395 3.56961,-0.65412 5.39404,-7.01818 4.14542,-14.4603 -2.97455,-17.70077 -9.03809,-4.11346 -2.52766,5.66407 -3.10437,11.2215 -1.16449,11.2215 0.65512,0 0.41462,0.5678 -0.53444,1.26177 -1.5308,1.11935 -1.5616,1.486 -0.27286,3.24848 1.43932,1.96837 1.48231,1.96484 4.65828,-0.38326 1.88777,-1.39569 3.02948,-1.80616 2.77726,-0.99848 -0.23556,0.75432 -2.07033,2.18604 -4.07726,3.1816 -4.26373,2.11507 -7.24021,1.14017 -8.76522,-2.87091 -1.36388,-3.58729 -3.97688,-3.1539 -3.97688,0.65959 0,5.97907 -10.11156,12.21822 -13.80912,8.52066 -3.10134,-3.10134 1.65209,-9.23837 9.22202,-11.90631 0.5021,-0.17696 -0.27842,-2.92393 -1.73448,-6.10439 -2.42227,-5.29092 -2.78289,-5.64714 -4.24088,-4.18915 -0.87642,0.87642 -2.41293,2.03205 -3.41447,2.56805 -1.52815,0.81784 -1.68303,1.58061 -0.96315,4.74345 0.66022,2.90071 0.45255,4.55404 -0.90153,7.17727 -3.12389,6.05184 -12.8664,9.37426 -15.12321,5.15737 -1.74037,-3.25191 -1.20028,-4.93131 3.07881,-9.57358 3.78416,-4.10533 4.15483,-5.00547 4.62338,-11.22765 0.53489,-7.103 2.85567,-11.26452 6.28196,-11.26452 2.0431,0 4.98067,-3.08516 4.98067,-5.23092 0,-0.86538 -1.32802,-2.03638 -2.95115,-2.60221 -3.18359,-1.1098 -9.02877,-0.5017 -22.54885,2.34588 -10.6378,2.24052 -9.13462,1.90769 -25,5.53542 -7.7,1.76066 -17.96545,3.99804 -22.81211,4.97195 -9.04632,1.81782 -9.8785,2.15998 -10.35817,4.25882 -0.15349,0.67158 -1.15588,4.70624 -2.22755,8.9659 -4.24265,16.86367 -2.58859,24.46956 3.95753,18.19798 1.61716,-1.54935 2.9403,-2.3228 2.9403,-1.71879 0,1.67514 -5.90404,6.27598 -8.05367,6.27598 -1.04512,0 -2.64933,-1.14328 -3.56491,-2.54063 z m 97.546,-7.09423 c 2.10861,-2.68067 2.71223,-5.85178 1.28211,-6.73564 -1.26663,-0.78282 -7.19892,2.48216 -8.32166,4.58003 -0.72832,1.36086 -0.68032,2.33563 0.16518,3.35439 1.82416,2.19798 4.58057,1.71731 6.87437,-1.19878 z m -15.27022,-1.93143 c 2.07276,-2.07276 2.44503,-3.17254 1.93579,-5.71875 -0.96551,-4.82754 -2.0881,-5.31872 -6.01158,-2.63031 -4.65495,3.18962 -6.14136,6.00056 -4.64831,8.79035 1.56168,2.91802 5.56741,2.7154 8.7241,-0.44129 z m -0.6572,-12.37469 c 0,-0.51754 -0.45,-1.2191 -1,-1.55902 -0.55,-0.33992 -1,0.0835 -1,0.94098 0,0.85746 0.45,1.55902 1,1.55902 0.55,0 1,-0.42344 1,-0.94098 z m -42.4433,21.71847 c -0.85618,-1.22237 -1.5567,-3.06238 -1.5567,-4.08889 0,-1.6653 -0.3315,-1.58745 -3.07673,0.72251 -3.42454,2.88156 -8.01627,3.38668 -9.9212,1.09139 -0.80139,-0.96562 -1.0923,-3.57835 -0.81904,-7.35608 0.70026,-9.68105 8.17227,-19.14643 15.11427,-19.14643 1.3688,0 2.74935,0.67917 3.06789,1.50929 0.31854,0.8301 0.92918,1.45181 1.35698,1.38157 3.74147,-0.61424 3.84908,1.22405 0.63363,10.82501 -1.81167,5.40944 -2.43211,13.27305 -1.22517,15.52822 1.42825,2.66872 -1.6603,2.2655 -3.57393,-0.46659 z m -4.60988,-4.72431 c 4.11759,-4.11759 7.65097,-15.05497 6.52287,-20.19118 -0.87973,-4.00539 -4.60011,-3.89197 -7.53501,0.22973 -5.20875,7.31502 -7.09069,21.90827 -2.82527,21.90827 1.03982,0 2.76666,-0.87607 3.83741,-1.94682 z m 29.57827,2.97455 c -2.22187,-2.45515 -1.70606,-7.98656 1.82099,-19.52773 1.34467,-4.4 2.22401,-8.36392 1.95409,-8.80871 -0.26992,-0.44478 -1.46038,-0.20057 -2.64546,0.54271 -2.4156,1.51503 -11.38983,18.68752 -11.85449,22.68396 -0.20932,1.80025 -0.98148,2.67879 -2.55022,2.90159 -2.71561,0.38568 -2.70173,1.03825 -0.24697,-11.60501 1.09833,-5.657 1.99697,-11.6195 1.99697,-13.25001 0,-2.26783 0.45616,-2.96454 1.94098,-2.96454 2.6677,0 3.13039,1.11543 2.11296,5.09386 -0.47909,1.87338 -1.152,5.20615 -1.49536,7.40615 l -0.62428,4 3.06659,-5.47146 c 4.95338,-8.83793 9.32077,-12.69601 13.03688,-11.51656 2.63911,0.83762 2.4905,3.1065 -0.90944,13.88459 -3.8228,12.11861 -4.45356,14.92247 -3.17987,14.13528 0.61168,-0.37804 0.78724,-0.007 0.4331,0.91621 -0.32755,0.85357 -0.0974,1.55194 0.51145,1.55194 0.60885,0 1.10699,0.45 1.10699,1 0,1.67782 -2.58487,1.1162 -4.47491,-0.97227 z m 82.51008,-8.96199 c -1.59526,-2.98078 -1.22744,-6.85012 1.47969,-15.56574 2.59506,-8.3548 3.11703,-12.50001 1.57402,-12.50001 -2.97798,0 -13.08889,18.19609 -13.08889,23.55541 0,1.968 -0.50854,2.4446 -2.60841,2.4446 -2.20491,0 -2.52145,-0.34805 -2.04624,-2.25 1.09879,-4.39779 3.65465,-20.04982 3.65465,-22.381 0,-1.87686 0.53336,-2.36901 2.56739,-2.36901 2.09273,0 2.45265,0.36149 1.94681,1.95527 -0.88792,2.79759 -2.37501,12.47894 -1.98058,12.89417 0.18255,0.19219 1.45103,-1.85903 2.81884,-4.55828 3.71995,-7.34098 7.97382,-11.50014 11.36384,-11.11083 3.9159,0.44969 3.97659,2.94975 0.34669,14.28157 -3.28963,10.26954 -3.76476,14.43634 -1.86299,16.33811 0.93333,0.93333 0.71893,1.2 -0.96482,1.2 -1.19065,0 -2.63065,-0.87042 -3.2,-1.93426 z M 320.68432,251.67849 c -1.58831,-0.61371 -1.617,-3.54932 -0.05,-5.11632 1.64012,-1.64012 4.8,-1.51556 4.8,0.18922 0,2.05457 -3.30685,5.48472 -4.75,4.9271 z m 50.22053,-10.12019 c 0.29361,-0.2936 -0.18159,-1.32436 -1.056,-2.29057 -0.87441,-0.96622 -1.37759,-2.57773 -1.11818,-3.58116 0.36965,-1.42986 0.49673,-1.32506 0.58765,0.48462 0.0638,1.26996 0.5336,2.05092 1.044,1.73548 0.51041,-0.31545 1.2178,0.33953 1.572,1.4555 0.3542,1.11597 1.06159,1.77095 1.572,1.4555 1.69488,-1.04749 0.95994,-3.50711 -1.322,-4.42434 -1.2375,-0.49741 -1.6875,-0.93291 -1,-0.96777 2.05817,-0.10437 1.41047,-3.06339 -0.67054,-3.06339 -2.04477,0 -3.83895,-4.9621 -2.54891,-7.04943 0.39245,-0.635 -0.19209,-0.55438 -1.38584,0.19113 -1.91176,1.19391 -1.94504,1.42145 -0.44966,3.07383 0.88821,0.98146 1.14396,1.78447 0.56835,1.78447 -0.57562,0 -1.33356,1.1434 -1.68431,2.5409 -0.35075,1.39749 -1.06871,2.27453 -1.59546,1.94898 -0.52676,-0.32555 -1.93451,0.31809 -3.12835,1.43032 -2.15878,2.01121 -2.17993,2.01149 -3.88024,0.051 -0.9403,-1.08417 -2.1712,-1.97122 -2.73535,-1.97122 -1.35122,0 -2.2678,-2.51699 -2.12369,-5.83179 0.0793,-1.82388 0.26519,-2.0912 0.58747,-0.84478 0.29115,1.12606 1.04296,1.60412 1.96578,1.25 0.82188,-0.31537 1.68252,-0.57341 1.91254,-0.57341 0.23001,0 0.41821,-0.87011 0.41821,-1.93358 0,-1.36598 -0.80725,-2.02646 -2.75,-2.25 -1.83166,-0.21075 -2.639,-0.81733 -2.41762,-1.81642 0.22416,-1.01157 -0.44807,-0.76735 -2.06445,0.75 -2.68774,2.52308 -4.68964,3.06552 -2.76793,0.75 1.04353,-1.25737 0.88273,-1.5 -0.99413,-1.5 -1.84175,0 -2.15526,0.43821 -1.7669,2.46974 0.26373,1.37964 0.0618,2.21616 -0.45745,1.89523 -0.51127,-0.31598 -2.09383,0.48514 -3.5168,1.78026 -1.42297,1.29512 -2.28232,1.82336 -1.90966,1.17387 0.37266,-0.6495 0.22022,-1.46356 -0.33875,-1.80902 -0.55897,-0.34546 -1.01631,-0.2497 -1.01631,0.2128 0,0.4625 -1.20127,0.94032 -2.66949,1.06184 -1.46822,0.12151 -2.37213,-0.0764 -2.00868,-0.43988 0.36345,-0.36345 0.15962,-1.26473 -0.45295,-2.00283 -0.61257,-0.73811 -0.72117,-1.3489 -0.24132,-1.35732 0.47984,-0.008 0.19744,-0.45842 -0.62756,-1 -1.33333,-0.87528 -1.33333,-1.09274 0,-1.95711 1.17897,-0.7643 1.60911,-0.38976 2.00982,1.75 0.2804,1.49733 0.8429,2.60992 1.25,2.47242 0.4071,-0.1375 1.18736,-0.25 1.73391,-0.25 1.45044,0 0.60411,-4.01013 -1.06778,-5.05941 -0.78427,-0.49221 -2.21345,-0.64988 -3.17595,-0.35037 -2.13525,0.66444 -2.24432,-0.55441 -0.2818,-3.14909 1.32847,-1.7564 1.47122,-1.77459 1.5,-0.19113 0.0467,2.56964 4.0318,2.32253 4.0318,-0.25 0,-1.79035 -1.03891,-2.46754 -3.25,-2.11842 -1.14765,0.18121 -0.89254,-1.33904 0.45,-2.68158 0.93333,-0.93333 0.90612,-1.2 -0.12244,-1.2 -1.06213,0 -1.0774,-0.29527 -0.0776,-1.5 2.04211,-2.46059 3.29974,-1.74872 2.65,1.5 -0.55561,2.77804 -0.38682,3 2.28138,3 2.25056,0 2.78193,0.38313 2.42711,1.75 -0.24984,0.9625 0.19082,2.62923 0.97926,3.70384 1.1736,1.59958 1.8576,1.76462 3.77232,0.91025 l 2.33879,-1.0436 -2.74606,-2.54496 c -2.95926,-2.74255 -1.94034,-4.17342 2.20075,-3.0905 1.79104,0.46836 2.09645,0.10279 2.09645,-2.50938 0,-1.68169 0.45,-3.33573 1,-3.67565 0.55,-0.33992 1,-0.0717 1,0.59597 0,0.75016 0.77024,0.51695 2.0159,-0.61036 1.95019,-1.7649 2.05934,-1.76497 3.3483,-0.002 0.88057,1.20424 1.80772,1.53569 2.7341,0.97742 1.20086,-0.7237 1.20153,-0.59806 0.005,0.87684 -1.10138,1.35725 -1.15429,2.25431 -0.25,4.23901 1.55818,3.41982 1.46671,3.74019 -0.89179,3.12343 -2.39327,-0.62585 -6.09197,2.79552 -5.28775,4.89128 0.40041,1.04345 1.00198,1.11751 2.51217,0.30929 2.50054,-1.33825 2.83118,-0.98118 3.40957,3.68208 0.51169,4.1255 2.0963,6.72596 3.55075,5.82706 0.50562,-0.31249 -0.0321,-2.10754 -1.19487,-3.98899 -2.05889,-3.33136 -1.56185,-4.63161 0.84894,-2.22082 0.92766,0.92766 1.47004,0.92996 2.38988,0.0101 1.30943,-1.30943 2.01034,-4.22321 0.96708,-4.02035 -0.36133,0.0703 -1.33196,-0.13304 -2.15696,-0.45178 -0.825,-0.31875 -2.175,-0.78119 -3,-1.02765 -1.01884,-0.30437 -0.53769,-0.87589 1.5,-1.78171 1.65,-0.73348 3.12935,-1.40932 3.28744,-1.50189 0.15809,-0.0926 -0.25251,-1.35334 -0.91244,-2.80174 -1.57459,-3.45585 -0.66479,-4.1886 2.56944,-2.06944 3.097,2.02923 4.15434,1.43178 2.6014,-1.46991 -0.88766,-1.6586 -0.82575,-2.08565 0.30234,-2.08565 0.78021,0 1.70344,1.0125 2.05162,2.25 0.5959,2.11789 0.71324,2.14552 1.99837,0.47061 1.12045,-1.46028 1.46406,-1.52202 1.91599,-0.3443 0.30289,0.78931 1.96872,1.74655 3.70184,2.12721 3.06018,0.67212 3.09822,0.74563 1.31757,2.54628 -4.26693,4.31489 -4.46746,4.80818 -2.40368,5.91268 2.93045,1.56833 3.7925,1.27976 4.49102,-1.50338 0.35075,-1.39749 1.09172,-2.26031 1.6466,-1.91738 0.55488,0.34294 3.22891,0.0546 5.94228,-0.64087 3.92129,-1.00499 4.70706,-1.5371 3.83015,-2.59371 -0.90318,-1.08826 -1.3456,-1.00997 -2.43979,0.43177 -1.19393,1.57317 -1.33994,1.58577 -1.36835,0.11808 -0.0353,-1.82415 -3.0318,-3.46376 -3.0318,-1.65894 0,0.62441 -0.29301,0.84228 -0.65112,0.48416 -0.35812,-0.35812 -1.27863,0.12938 -2.04557,1.08333 -1.22833,1.52783 -1.31898,1.22815 -0.76098,-2.51554 0.60315,-4.04661 0.51244,-4.25 -1.89542,-4.25 -1.39088,0 -2.73652,-0.3375 -2.9903,-0.75 -0.25378,-0.4125 -3.99284,-0.525 -8.30902,-0.25 -7.58594,0.48333 -14.12588,-0.77235 -18.34759,-3.52276 -0.825,-0.53748 -3.06791,-1.43967 -4.98424,-2.00486 -1.91632,-0.56518 -3.95787,-1.91518 -4.53675,-3 -0.57889,-1.08481 -2.04681,-3.54738 -3.26203,-5.47238 -1.21523,-1.925 -2.21119,-4.6824 -2.21324,-6.12756 -0.002,-1.44515 -0.76299,-3.24515 -1.69097,-4 -1.50187,-1.22166 -1.5976,-1.15272 -0.8714,0.62756 0.4487,1.1 1.04334,3.125 1.32142,4.5 0.27808,1.375 0.97878,3.0968 1.5571,3.82622 0.742,0.93584 0.71804,1.53231 -0.0814,2.02639 -1.36075,0.84099 -0.46514,2.40625 2.26152,3.95244 1.1,0.62377 1.44906,1.14782 0.77568,1.16454 -1.27254,0.0316 -4.8694,6.03041 -3.61581,6.03041 0.39117,0 1.74802,-0.97401 3.0152,-2.16447 2.13586,-2.00654 2.43466,-2.0462 4.09503,-0.54358 2.19276,1.98449 1.89431,9.70786 -0.37543,9.70786 -0.76723,0 -1.39496,-0.39541 -1.39496,-0.87868 0,-0.48327 -1.34428,-1.4355 -2.98729,-2.11606 -1.64301,-0.68055 -2.74145,-1.63515 -2.44098,-2.12132 0.99324,-1.6071 -1.25809,-0.91849 -3.96917,1.21404 l -2.66715,2.09799 3.0323,-4.49301 c 1.66776,-2.47116 3.03229,-5.18973 3.03229,-6.04128 0,-1.68024 -3.65991,-4.66168 -5.72251,-4.66168 -2.3576,0 -1.30694,2.16261 1.58008,3.25234 l 2.85757,1.07861 -2.28362,3.58453 c -3.13749,4.92482 -8.67496,10.17697 -10.14949,9.62653 -0.66989,-0.25006 -1.48395,-0.0243 -1.80902,0.50166 -0.32508,0.52598 -1.04104,0.95633 -1.59104,0.95633 -0.55,0 -0.72189,-0.45 -0.38197,-1 1.11285,-1.80063 -2.14863,-1.0489 -5.61045,1.29315 -5.00283,3.3846 -6.70795,4.13924 -4.02877,1.78304 2.98922,-2.62886 1.27317,-2.65585 -4.15062,-0.0653 -2.31559,1.106 -3.33274,1.4435 -2.26033,0.75 2.73923,-1.77139 8.66715,-7.97726 8.13156,-8.51284 -0.86,-0.86 -5.5223,3.26698 -5.08589,4.50194 0.2644,0.74819 -0.41732,1.25 -1.69814,1.25 -1.17694,0 -2.96557,0.74724 -3.97475,1.66054 -1.00918,0.91329 -2.01623,1.47579 -2.23788,1.25 -0.22165,-0.2258 2.06418,-2.54804 5.07964,-5.16054 3.84178,-3.32841 4.9369,-4.76352 3.65913,-4.79519 -1.07446,-0.0266 0.025,-1.03499 2.6765,-2.45481 2.475,-1.32529 3.79851,-2.42996 2.94113,-2.45481 -0.85738,-0.0249 -2.43238,0.6155 -3.5,1.42301 -1.06762,0.8075 -2.36464,1.4825 -2.88226,1.5 -0.51762,0.0175 -0.0676,-0.6359 1,-1.45198 2.40851,-1.84103 9.26203,-3.93164 11.94113,-3.64254 1.48062,0.15977 1.65343,-0.0195 0.66547,-0.69019 -1.01585,-0.68966 -0.77705,-1.05528 1,-1.5311 3.38345,-0.90593 3.54912,-0.8518 4.12428,1.34761 0.38083,1.4563 1.36401,2 3.61663,2 3.50561,0 4.13695,-1.53408 1.03634,-2.51818 -1.66657,-0.52894 -3.94272,-4.01986 -3.94272,-6.04691 0,-0.88852 3.90466,-0.39818 4.5,0.5651 0.33992,0.55 1.15398,0.99311 1.80902,0.98469 0.71561,-0.009 0.59227,-0.40223 -0.30902,-0.98469 -1.25497,-0.81102 -1.18691,-0.97188 0.41667,-0.98469 3.43515,-0.0274 1.04328,-0.99187 -3.99551,-1.61103 -6.99017,-0.85895 -13.1459,-0.87315 -18.92116,-0.0437 -4.61181,0.66238 -4.8059,0.61043 -2.5,-0.66909 1.375,-0.76298 5.2,-1.42773 8.5,-1.47723 3.3,-0.0495 6.8104,-0.11796 7.80089,-0.15214 1.56497,-0.054 1.43397,-0.5468 -1,-3.76173 -1.54049,-2.03478 -2.19513,-3.33148 -1.45476,-2.88158 0.9765,0.5934 1.23478,0.30497 0.94061,-1.05041 -0.22304,-1.02764 -1.05379,-1.71843 -1.84613,-1.5351 -0.79234,0.18334 -1.10701,-2.6e-4 -0.69929,-0.40799 0.40773,-0.40773 0.18273,-1.43161 -0.5,-2.27529 -0.79192,-0.97862 -0.82672,-1.28554 -0.0961,-0.84775 1.4948,0.89569 2.42635,-1.57831 1.27757,-3.39298 -0.49069,-0.77513 -0.91337,-0.95932 -0.93928,-0.40932 -0.0259,0.55 -0.70781,0.12649 -1.51531,-0.94113 -0.80751,-1.06762 -1.45225,-2.41762 -1.43276,-3 0.0195,-0.58237 0.58198,-0.15887 1.25,0.94113 1.38331,2.27788 3.60203,2.57937 5.53401,0.75198 1.77565,-1.67953 4.96762,0.0514 5.73532,3.11022 0.31811,1.26746 1.22342,2.30447 2.01181,2.30447 1.4292,0 1.79873,-1.29916 1.49404,-5.25267 -0.0884,-1.14729 0.53677,-2.66489 1.38931,-3.37244 1.29177,-1.07204 1.55007,-1.01606 1.55007,0.33603 0,0.89234 0.675,1.62244 1.5,1.62244 0.825,0 1.5,0.4132 1.5,0.91822 0,0.50501 0.28192,1.65287 0.62648,2.55079 0.51483,1.34163 0.15839,1.5151 -2,0.97338 -1.65206,-0.41464 -2.62648,-0.24799 -2.62648,0.4492 0,0.98153 2.09486,1.49392 5.67858,1.38896 0.64823,-0.019 1.11616,0.79428 1.03985,1.80727 -0.12544,1.66525 -0.30078,1.69514 -1.82931,0.31184 -1.24751,-1.12898 -1.8812,-1.2215 -2.41796,-0.353 -0.40006,0.64732 -0.16882,1.52216 0.51388,1.94409 0.9645,0.5961 0.93732,0.86937 -0.12189,1.22558 -1.15068,0.38697 -1.15054,0.716 8.9e-4,2.11093 1.24603,1.50951 1.54429,1.42335 3.44721,-0.99582 1.14574,-1.45658 2.14917,-3.54419 2.22984,-4.63914 0.16905,-2.29463 3.03341,-4.6923 5.60563,-4.6923 0.97045,0 3.37793,-1.09493 5.34995,-2.43317 4.30503,-2.92148 11.48085,-3.97627 22.95409,-3.37408 6.03933,0.31699 9.12307,0.96963 11.19263,2.3688 1.57114,1.0622 4.09754,2.4751 5.61422,3.13979 1.51669,0.66468 3.2142,2.4094 3.77223,3.87715 0.55804,1.46775 2.12961,3.5457 3.49239,4.61765 2.01276,1.58324 2.47777,2.83624 2.47777,6.67644 0,2.60008 -0.54,5.26742 -1.2,5.92742 -1.99755,1.99755 0.36493,3.46799 3.59733,2.23903 2.72612,-1.03646 2.75488,-3.03903 0.0437,-3.03903 -1.89255,0 -1.81984,-0.92388 0.25295,-3.21429 1.6034,-1.77174 1.59004,-1.83839 -0.25,-1.24711 -1.92392,0.61824 -1.92395,0.60839 -0.003,-0.95696 1.57575,-1.28393 1.64476,-1.58164 0.36663,-1.58164 -0.86597,0 -1.85227,-0.7875 -2.19177,-1.75 -0.3395,-0.9625 -0.90037,-2.37514 -1.24637,-3.1392 -0.36514,-0.80634 -0.20263,-1.12563 0.38734,-0.76101 0.55904,0.34551 1.57251,-0.0419 2.25218,-0.8608 0.82725,-0.99678 0.87297,-1.48899 0.1383,-1.48899 -0.69806,0 -0.86777,-1.14833 -0.46634,-3.15549 0.43811,-2.19054 0.29092,-2.94525 -0.48133,-2.46798 -0.61183,0.37814 -0.84085,1.46061 -0.50892,2.4055 0.46653,1.32804 0.32185,1.45837 -0.63745,0.57419 -1.93871,-1.78689 -0.82445,-4.6399 2.11963,-5.42723 2.30034,-0.61518 2.83661,-0.31992 3.84632,2.11772 0.64531,1.55792 0.87839,3.30974 0.51795,3.89293 -0.36043,0.5832 -0.13063,1.06036 0.51067,1.06036 0.6413,0 0.92848,0.619 0.63816,1.37554 -0.31231,0.81388 0.48367,1.83643 1.9494,2.50426 2.5128,1.14491 2.41191,3.1202 -0.15936,3.1202 -0.77319,0 -1.9057,0.93406 -2.51668,2.07569 -1.01635,1.89908 -0.93426,1.98117 0.96482,0.96482 1.49276,-0.7989 2.07569,-0.80359 2.07569,-0.0167 0,0.60307 0.54459,0.75763 1.2133,0.34434 1.83949,-1.13687 7.86187,-1.56514 11.77407,-0.83729 3.28637,0.61141 3.37622,0.73009 1.55887,2.05896 -1.06067,0.77559 -1.50499,1.46046 -0.98737,1.52194 0.51762,0.0615 2.51613,0.28981 4.44113,0.5074 1.925,0.21758 3.65,0.84228 3.83333,1.38821 0.18334,0.54594 1.22798,0.99261 2.32143,0.99261 1.09345,0 2.6631,0.675 3.4881,1.5 1.33333,1.33333 1.20773,1.5 -1.13045,1.5 -1.49898,0 -2.3646,-0.43014 -2.01241,-1 0.33992,-0.55 -0.0835,-1 -0.94098,-1 -0.85746,0 -1.55902,0.38276 -1.55902,0.85058 0,0.46782 -2.70072,0.73463 -6.0016,0.59291 -3.40396,-0.14614 -5.75894,0.13494 -5.44098,0.64942 0.30834,0.4989 -0.98584,0.90709 -2.87596,0.90709 -3.33352,0 -6.34063,2.0075 -5.00612,3.34201 1.35668,1.35668 5.40524,0.58674 7.05669,-1.34201 1.71383,-2.0016 7.96091,-2.93022 6.77208,-1.00666 -0.34687,0.56126 0.38867,0.92541 1.69099,0.83717 2.49422,-0.16901 10.41003,2.34361 14.66373,4.65453 3.51724,1.91083 2.28561,1.89109 -2.32978,-0.0374 -2.04336,-0.85377 -4.19513,-1.39233 -4.78171,-1.1968 -0.58658,0.19552 1.12501,1.19245 3.80354,2.21539 4.14761,1.58399 4.57923,1.98564 2.90959,2.70755 -1.37562,0.59478 -0.91635,0.70022 1.53953,0.35344 1.925,-0.27182 4.175,-0.038 5,0.51964 1.09598,0.74076 0.69195,0.83547 -1.5,0.35161 l -3,-0.66224 3.5,3.71183 3.5,3.71182 -4,-0.64253 -4,-0.64253 4.25,2.01367 c 6.23935,2.95624 5.18523,3.41501 -1.27851,0.55643 -6.67298,-2.95111 -9.08108,-3.16664 -4.97149,-0.44497 3.77613,2.50083 2.58825,2.63241 -1.47224,0.16308 -1.66132,-1.01031 -2.68469,-2.20746 -2.27417,-2.66033 0.41053,-0.45287 0.26665,-0.55084 -0.31971,-0.2177 -1.31918,0.74947 -8.69843,-1.68717 -7.80754,-2.57806 0.97673,-0.9765 -2.46262,-5.70692 -4.14924,-5.70692 -2.04062,0 -1.85307,0.94748 0.77305,3.90529 1.2375,1.3938 1.4625,1.93021 0.5,1.192 -1.72416,-1.32236 -2.31046,-0.64686 -1.86842,2.15271 0.23526,1.48999 -2.02175,0.70234 -4.29825,-1.5 -1.27916,-1.2375 -2.94621,-2.38746 -3.70454,-2.55547 -0.75834,-0.16801 -2.27309,-1.51801 -3.36613,-3 -1.09303,-1.48199 -2.96735,-3.58413 -4.16514,-4.67143 l -2.17781,-1.97689 3.09003,-1.02311 c 3.06067,-1.01338 5.00166,-3.5231 2.72472,-3.5231 -2.34475,0 -7.78353,3.16328 -7.59912,4.41976 0.22611,1.54056 5.22191,7.63965 5.7913,7.07027 0.21949,-0.21949 0.98807,0.54407 1.70797,1.6968 1.2807,2.05073 1.23028,2.04729 -2.34046,-0.15954 -2.00714,-1.24048 -3.96318,-1.91749 -4.34675,-1.50445 -0.38357,0.41303 -0.19871,0.93059 0.41079,1.15013 0.6095,0.21954 1.9595,1.0913 3,1.93725 1.0405,0.84595 1.32931,1.25317 0.64181,0.90492 -0.6875,-0.34825 -1.25,-0.10152 -1.25,0.54829 0,0.90711 -0.32968,0.90785 -1.41971,0.003 -1.14435,-0.94973 -1.36402,-0.82802 -1.1326,0.62755 0.15791,0.9932 1.02177,1.74331 1.91971,1.66692 1.01501,-0.0864 1.6747,0.67022 1.7439,2 0.38747,7.44589 0.29947,9.3914 -0.4051,8.95659 -0.4366,-0.26944 -1.35169,-0.0269 -2.03354,0.53901 -0.7179,0.5958 -1.81884,0.67098 -2.61551,0.17861 -0.75668,-0.46765 -1.87135,-0.66011 -2.47705,-0.42768 -0.6057,0.23243 -2.59292,-0.93981 -4.41604,-2.60497 -3.57702,-3.26711 -5.87454,-3.19873 -4.09737,0.12194 0.68102,1.2725 0.72709,2.43589 0.12629,3.18931 -0.5247,0.658 -0.58689,2.07655 -0.13968,3.18608 1.17709,2.92035 1.10216,3.72007 -0.3033,3.23725 -0.6875,-0.23617 -2.45499,-0.0894 -3.92775,0.32614 -1.9626,0.55377 -2.83058,0.35729 -3.25,-0.7357 -0.86993,-2.26701 -0.79113,-2.32147 2.42775,-1.67769 2.34872,0.46974 3,0.24722 3,-1.025 0,-1.93296 -3.99901,-2.22599 -5.8,-0.425 -0.93333,0.93333 -1.2,0.73489 -1.2,-0.89301 0,-2.47719 -2.59214,-3.81224 -3.38586,-1.74385 -0.30325,0.79027 -0.11549,1.43686 0.41724,1.43686 0.53274,0 0.85612,0.5625 0.71862,1.25 -0.1375,0.6875 0.26981,1.15173 0.90514,1.03162 0.63533,-0.12011 1.41934,0.47008 1.74224,1.31154 0.43599,1.13618 0.0129,1.44975 -1.64412,1.21838 -1.77104,-0.24729 -2.47965,0.41031 -3.43579,3.18846 -0.66252,1.925 -1.22998,2.9375 -1.26103,2.25 -0.031,-0.6875 -0.55892,-1.25 -1.17307,-1.25 -0.61415,0 -0.90141,0.82303 -0.63835,1.82896 0.56422,2.15758 -0.95297,4.45151 -3.74502,5.6623 -2.31078,1.00208 -5.81824,1.49365 -5.02947,0.70487 z m 6.52947,-4.005 c 0,-0.44488 -0.66069,-1.68238 -1.4682,-2.75 -1.49888,-1.9817 -2.01804,-0.87182 -0.92481,1.97708 0.62698,1.63389 2.39301,2.2043 2.39301,0.77292 z m -18.5,-4.77446 c 0,-2.2337 -4.0841,-3.23784 -5.86534,-1.44209 -0.84895,0.85588 -0.71676,0.98488 0.525,0.51234 1.1418,-0.4345 1.87034,0.0322 2.33486,1.49581 0.81023,2.55283 3.00548,2.13937 3.00548,-0.56606 z m 20.875,-0.21442 c 0.75317,-1.21865 -0.64598,-2.91252 -2.875,-3.48057 -1.90417,-0.48527 -1.8922,-0.54431 0.25,-1.23231 1.2375,-0.39745 2.24785,-1.23265 2.24522,-1.856 -0.005,-1.15989 -6.449,-8.63337 -7.44424,-8.63337 -1.11675,0 -0.50631,2.31383 0.89429,3.38976 0.79489,0.61063 1.72523,2.27426 2.06742,3.69694 0.58127,2.41671 0.42057,2.55712 -2.44527,2.1365 -2.57396,-0.37777 -3.06742,-0.11969 -3.06742,1.60428 0,2.51113 1.12905,3.32883 2.99987,2.1726 0.95231,-0.58856 1.84041,-0.24542 2.75896,1.06598 1.38782,1.9814 3.73653,2.55949 4.61617,1.13619 z m 2.53045,-6.05642 c -1.4779,-0.50795 -2.22865,0.5222 -1.38059,1.8944 0.53766,0.86994 0.94308,0.82251 1.56809,-0.18347 0.49513,-0.79692 0.41776,-1.5029 -0.1875,-1.71093 z m -42.43852,-5.96827 -0.71352,-2.67756 -0.97103,2.78299 c -0.53407,1.53064 -0.67333,3.55564 -0.30946,4.5 0.61558,1.59764 0.7327,1.59031 1.68456,-0.10543 0.56264,-1.00234 0.70189,-3.02734 0.30945,-4.5 z m 33.10217,3.71064 c 0.37792,-0.6115 0.0789,-1.48774 -0.66459,-1.94722 -1.26886,-0.78419 -2.85187,0.48094 -2.8892,2.30902 -0.0238,1.16752 2.78537,0.88152 3.55379,-0.3618 z m 21.4309,-2.78121 c 0,-1.13332 -2.52569,-2.11635 -5.33179,-2.07519 -2.12165,0.0311 -2.12652,0.0633 -0.22708,1.5 2.14363,1.62137 5.55887,1.97475 5.55887,0.57519 z m 16,-2.67387 c 0,-1.74025 -3.14035,-1.89277 -4.8,-0.23312 -0.93333,0.93333 -1.2,0.69614 -1.2,-1.06739 0,-1.81231 -0.40141,-2.13998 -2,-1.63261 -1.55976,0.49505 -2,0.1797 -2,-1.43261 0,-1.47276 0.64716,-2.07179 2.25,-2.0827 3.5567,-0.0242 5.05892,-1.436 4.24769,-3.99197 -0.39399,-1.24134 -1.00464,-1.86002 -1.35701,-1.37485 -0.35238,0.48517 -1.46645,1.53149 -2.47573,2.32516 -1.70034,1.3371 -1.81045,1.22698 -1.5,-1.5 0.28226,-2.47934 -0.13762,-3.12984 -2.66495,-4.12871 -2.88905,-1.14183 -2.91679,-1.21086 -0.75,-1.86663 2.58737,-0.78306 2.89085,-1.98967 0.79536,-3.16237 -1.00647,-0.56325 -1.16524,-1.27178 -0.51532,-2.29969 0.6297,-0.99591 0.94438,-1.07359 0.95465,-0.23563 0.008,0.6875 1.00132,1.25 2.20644,1.25 2.14132,0 2.147,-0.0334 0.25,-1.4682 -2.82199,-2.13444 -4.14134,-1.86239 -4.86031,1.00221 -0.36272,1.44518 -1.80578,3.03217 -3.35841,3.69336 -1.49732,0.63764 -3.47339,1.78403 -4.39125,2.54753 -0.91786,0.76349 -3.61786,2.0323 -6,2.81957 l -4.33116,1.43139 3.88403,-0.58339 c 3.25589,-0.48904 3.78656,-0.32941 3.28138,0.98707 -0.42193,1.09953 -0.0123,1.57046 1.36597,1.57046 2.13024,0 2.6372,-1.46876 0.88149,-2.55385 -0.77704,-0.48024 -0.76516,-0.99386 0.0416,-1.80066 0.83136,-0.83136 1.31541,-0.83389 1.83713,-0.01 0.3896,0.61555 2.62086,1.43884 4.95836,1.82954 4.12769,0.68992 5.29101,1.77315 3.25538,3.03125 -0.54704,0.33809 -1.46515,1.4939 -2.04024,2.56846 -0.879,1.64241 -0.64081,2.10767 1.49462,2.91956 1.39713,0.53119 2.54024,1.44144 2.54024,2.02277 0,1.31326 3.53787,2.67503 7.22181,2.77977 1.78196,0.0507 2.77819,-0.43491 2.77819,-1.35412 z m -41,-0.93312 c 0,-0.825 -0.42344,-1.5 -0.94098,-1.5 -1.26098,0 -2.1641,1.56159 -1.36517,2.36052 1.12619,1.12618 2.30615,0.68589 2.30615,-0.86052 z m 7.39301,-0.0818 c 1.01685,-2.64985 0.68305,-4.4182 -0.83399,-4.4182 -1.97724,0 -2.81201,1.62755 -2.05618,4.00895 0.75975,2.39375 2.0581,2.5776 2.89017,0.40926 z m -25.03138,-0.9182 c 0.35062,-0.91371 0.002,-1.5 -0.89301,-1.5 -0.80774,0 -1.46862,0.675 -1.46862,1.5 0,0.825 0.40186,1.5 0.89301,1.5 0.49116,0 1.15203,-0.675 1.46862,-1.5 z m 58.63837,-1.53138 c 0,-1.36242 -2.4305,-2.24597 -4.69159,-1.70551 -1.53651,0.36726 -1.43253,0.59597 0.69159,1.52118 3.23506,1.40911 4,1.44436 4,0.18433 z M 355.03849,211.633 c -1.01652,-1.01651 -1.85525,0.51389 -1.02122,1.86338 0.63003,1.01942 0.86558,1.02021 1.2043,0.004 0.2316,-0.69479 0.14921,-1.53513 -0.18308,-1.86742 z m -39.80417,-0.47083 c 1.5367,-1.5367 1.56207,-4.08736 0.0356,-3.57853 -0.64043,0.21348 -1.82031,1.37598 -2.62197,2.58334 -1.24898,1.88106 -1.25407,2.19519 -0.0356,2.19519 0.78208,0 1.96197,-0.54 2.62197,-1.2 z m 10.12018,-0.25067 c 1.26509,-0.78187 4.21508,-6.74741 3.62728,-7.3352 -0.83327,-0.83327 -3.57996,0.70698 -4.21586,2.36411 -0.34267,0.89299 -0.0594,1.97194 0.62945,2.39768 1.58453,0.9793 -0.012,2.09601 -3.55209,2.48462 -2.26914,0.24909 -2.34819,0.12979 -0.94287,-1.42307 1.81363,-2.00403 2.03431,-4.37094 0.35535,-3.81128 -1.87391,0.62463 -3.19692,3.35294 -2.50291,5.16149 0.61198,1.59481 4.14286,1.68127 6.60165,0.16165 z m 70.47283,-0.13112 c 0.88044,-2.29439 0.80912,-2.41821 -1.39301,-2.41821 -1.1,0 -2,0.1882 -2,0.41821 0,1.21975 1.31892,3.58179 2,3.58179 0.43231,0 1.05917,-0.7118 1.39301,-1.58179 z m 52.60699,0.16335 c 0,-1.01485 -7.06326,-4.66049 -7.95805,-4.10749 -0.54699,0.33806 -2.2427,-0.10895 -3.76824,-0.99336 -1.52554,-0.88441 -1.9456,-1.35291 -0.93347,-1.04112 2.43065,0.74878 4.31371,-0.41052 2.51652,-1.54928 -4.40218,-2.78936 -6.53348,0.93282 -2.8178,4.92113 1.97029,2.11486 5.67246,3.14868 4.50375,1.25766 -1.18559,-1.91832 1.28555,-1.95264 3.48122,-0.0483 2.02868,1.75946 4.97607,2.68394 4.97607,1.5608 z m -23.5,-2.58156 c -0.33992,-0.55 -1.15398,-0.99311 -1.80902,-0.98469 -0.71561,0.009 -0.59227,0.40223 0.30902,0.98469 1.92112,1.24153 2.2673,1.24153 1.5,0 z m -81.5,-1.44098 c 0,-0.79254 -0.34246,-1.65264 -0.76103,-1.91133 -1.03956,-0.64248 -4.37064,1.88731 -3.55676,2.70119 1.22148,1.22147 4.31779,0.65506 4.31779,-0.78986 z m -28.02896,-0.51996 c 0.80907,-0.51167 1.16598,-1.23537 0.79313,-1.60823 -0.9151,-0.91509 -3.76417,0.24885 -3.76417,1.53779 0,1.2701 1.03529,1.29465 2.97104,0.0704 z m 62.02896,-0.96252 c 7.97829,-1.32278 15.29315,-4.89046 17.41135,-8.49206 0.59876,-1.01808 2.10115,-2.89562 3.33865,-4.17231 3.18452,-3.28537 3.09957,-9.65351 -0.17241,-12.92549 -1.33233,-1.33233 -2.72136,-3.36431 -3.08674,-4.51551 -0.36538,-1.1512 -1.86279,-2.60267 -3.32758,-3.22549 -1.4648,-0.62282 -3.33827,-1.66969 -4.16327,-2.32637 -2.01345,-1.60267 -10.9977,-3.42296 -16.79922,-3.40368 -6.11152,0.0203 -15.80504,2.32167 -17.98603,4.27011 -0.94311,0.84255 -2.83116,1.68544 -4.19566,1.87308 -1.85514,0.25512 -3.30624,1.85459 -5.75297,6.34118 -3.64609,6.68586 -3.78344,11.18435 -0.45473,14.8934 1.03982,1.15863 2.17001,2.89799 2.51153,3.86525 0.34152,0.96726 1.87108,2.25548 3.39902,2.86271 1.52793,0.60723 4.04206,1.76944 5.58695,2.58267 5.36664,2.82503 15.08919,3.79867 23.69111,2.37251 z m -13.69745,-4.27358 c -7.62479,-3.68388 -7.4948,-27.46168 0.16064,-29.38308 1.34804,-0.33833 3.0328,-0.38174 3.7439,-0.0965 0.82357,0.3304 0.65765,0.54734 -0.45709,0.59763 -0.9625,0.0434 -1.75,0.55551 -1.75,1.13797 0,0.58246 0.45,0.7809 1,0.44098 1.44333,-0.89202 1.23126,0.72916 -0.56689,4.33363 -0.86179,1.72749 -1.28523,3.59663 -0.94098,4.15363 0.34425,0.55701 -0.0427,1.01274 -0.85979,1.01274 -1.83551,0 -2.23411,1.85802 -1.77653,8.2811 0.24214,3.39894 0.64147,4.55117 1.25,3.60672 0.7609,-1.18095 1.02946,-1.17775 1.80167,0.0215 0.49911,0.77512 0.67377,2.01835 0.38812,2.76273 -0.28564,0.74438 0.0361,2.02269 0.71497,2.84068 1.4196,1.71052 0.44733,1.81471 -2.70802,0.29023 z m 0.26494,-22.11824 c 0.2776,-0.72341 0.067,-2.41091 -0.468,-3.75 -0.53499,-1.3391 -1.00739,-1.75972 -1.04976,-0.93472 -0.0424,0.825 -0.34838,2.5125 -0.68002,3.75 -0.64725,2.41521 1.3102,3.24771 2.19778,0.93472 z m 10.58174,22.81528 c -0.005,-0.55 0.37808,-1.9 0.85077,-3 0.85943,-2 0.85943,-2 0.96152,0 0.10209,2 0.10209,2 1.61817,0 0.83385,-1.1 1.31166,-2.7875 1.06182,-3.75 -0.24985,-0.9625 -0.0881,-1.75 0.35956,-1.75 0.44761,0 0.96798,-2.47561 1.15638,-5.50136 0.1884,-3.02575 0.25934,-5.50075 0.15765,-5.5 -0.1017,7.5e-4 -1.31766,0.43203 -2.70213,0.95841 -1.96368,0.74659 -2.40451,0.66328 -2.00462,-0.37881 0.28194,-0.73472 1.21062,-1.27789 2.06374,-1.20705 2.35652,0.19569 4.09597,-3.00537 2.49619,-4.59367 -1.04674,-1.03921 -1.16956,-0.90444 -0.65846,0.72248 0.43662,1.38981 0.17637,1.24109 -0.85301,-0.48745 -0.81474,-1.3681 -1.22629,-2.90013 -0.91457,-3.40451 0.31173,-0.50438 0.15479,-0.66243 -0.34876,-0.35122 -0.50355,0.3112 -1.78408,-0.0693 -2.84564,-0.8455 -2.22716,-1.62853 -0.82554,-1.8476 2.85881,-0.44681 3.27762,1.24615 5.59614,6.81351 5.58358,13.40761 -0.0119,6.23413 -4.18188,16.15205 -6.42865,15.28988 -0.7878,-0.3023 -1.65091,-0.0124 -1.91802,0.64418 -0.26712,0.6566 -0.48956,0.74382 -0.49433,0.19382 z m -4.07028,-3.08333 c 0.048,-1.16495 0.28494,-1.4019 0.60416,-0.60417 0.28887,0.72187 0.25335,1.58437 -0.0789,1.91667 -0.33229,0.33229 -0.56864,-0.25834 -0.52522,-1.3125 z m 2.73355,-4.09978 c 0.72187,-0.28887 1.58438,-0.25335 1.91667,0.0789 0.33229,0.3323 -0.25834,0.56864 -1.3125,0.52522 -1.16495,-0.048 -1.4019,-0.28494 -0.60417,-0.60416 z m 3.36221,-3.9599 c -0.13435,-3.95483 0.20451,-5.28853 1.46673,-5.77289 1.25666,-0.48223 1.38999,-0.3269 0.56876,0.66263 -0.58998,0.71088 -1.25001,3.30868 -1.46674,5.77289 l -0.39405,4.48038 -0.1747,-5.14301 z m -6.85864,1.54236 c 0.57283,-2.19052 -1.034,-6.86555 -2.79572,-8.13404 -0.56119,-0.40408 -0.008,-0.74158 1.22965,-0.75 1.84133,-0.0125 2.27391,-0.60561 2.38164,-3.26531 l 0.13164,-3.25 0.61836,3.5 c 0.42305,2.39452 0.22355,3.60212 -0.63164,3.82332 -1.63949,0.42407 -1.61822,2.17668 0.0264,2.17668 0.88607,0 1.15976,1.22327 0.89496,4 -0.2098,2.2 -0.83668,4 -1.39306,4 -0.55637,0 -0.76439,-0.94529 -0.46226,-2.10065 z m -6.31607,-2.95837 c 0,-2.23246 0.36283,-3.83477 0.80629,-3.5607 0.7747,0.47879 0.38513,7.61972 -0.4157,7.61972 -0.21482,0 -0.39059,-1.82656 -0.39059,-4.05902 z m -22,-1.94098 c 0,-0.55 0.42344,-1 0.94098,-1 0.51754,0 1.2191,0.45 1.55902,1 0.33992,0.55 -0.0835,1 -0.94098,1 -0.85746,0 -1.55902,-0.45 -1.55902,-1 z m 55.5,-1 c 0.33992,-0.55 1.04148,-1 1.55902,-1 0.51754,0 0.94098,0.45 0.94098,1 0,0.55 -0.70156,1 -1.55902,1 -0.85746,0 -1.2809,-0.45 -0.94098,-1 z m -21.76879,-7.91984 c -0.43497,-1.66335 -0.30483,-2.05378 0.43724,-1.31171 0.5811,0.5811 0.85979,1.64682 0.61931,2.36826 -0.24965,0.74895 -0.70294,0.29565 -1.05655,-1.05655 z m 49.08504,26.20421 c -0.38259,-1.9866 -5.35268,-5.08127 -6.43016,-4.00379 -0.94301,0.94301 3.53453,5.71942 5.36155,5.71942 0.78343,0 1.25363,-0.75489 1.06861,-1.71563 z m -19.35896,-0.21527 c 0.31644,-0.512 0.11799,-1.21356 -0.44098,-1.55902 -0.55897,-0.34546 -1.01631,0.0734 -1.01631,0.9309 0,1.75653 0.60006,2.01516 1.45729,0.62812 z m -80.68786,-1.87738 c 0.26419,-0.79258 -0.97038,-1.19172 -3.6861,-1.19172 -3.85473,0 -4.9701,0.7799 -3.38389,2.36611 1.08316,1.08315 6.62428,0.16272 7.06999,-1.17439 z m 83.23057,-2.19172 c -0.5887,-1.1 -1.57428,-2 -2.19017,-2 -0.61589,0 -0.30532,0.9 0.69017,2 0.99549,1.1 1.98106,2 2.19017,2 0.20911,0 -0.10147,-0.9 -0.69017,-2 z m 24.83453,1.34761 c 3.47922,-0.93158 0.64406,-2.31362 -4.78453,-2.3323 -5.51102,-0.019 -4.44167,1.5467 1.95,2.85503 0.275,0.0563 1.55054,-0.17894 2.83453,-0.52273 z m 1.9586,-9.83047 c -1.09804,-0.88324 -5.79313,-1.37722 -5.79313,-0.60952 0,1.1183 2.95204,1.90928 4.79313,1.28428 0.71122,-0.24144 1.16122,-0.54508 1,-0.67476 z m -10.79313,-1.54477 c 0,-0.50028 -0.65616,-0.65781 -1.45813,-0.35006 -0.96205,0.36917 -1.66888,-0.28016 -2.07758,-1.90858 -0.57016,-2.2717 -0.91171,-2.4022 -4.29187,-1.63985 -2.01983,0.45555 -3.78492,0.85028 -3.92242,0.87719 -0.1375,0.0269 -0.72656,0.0489 -1.30902,0.0489 -0.58246,0 -0.80139,0.41685 -0.48651,0.92633 0.35131,0.56843 1.82039,0.56843 3.80241,0 4.04143,-1.15907 4.74312,-1.15902 4.74312,3.5e-4 0,0.50967 -0.7875,1.11003 -1.75,1.33414 -1.17864,0.27443 -0.60729,0.74017 1.75,1.42651 3.61671,1.05304 5,0.85524 5,-0.71496 z m 4,0 c 0,-0.50028 -0.67242,-0.65157 -1.49426,-0.3362 -0.82184,0.31537 -1.24074,0.98359 -0.9309,1.48493 0.64806,1.04858 2.42516,0.20682 2.42516,-1.14873 z m -95,-1.97237 c -0.825,-0.53316 -1.95,-0.96937 -2.5,-0.96937 -0.55,0 -0.325,0.43621 0.5,0.96937 0.825,0.53316 1.95,0.96937 2.5,0.96937 0.55,0 0.325,-0.43621 -0.5,-0.96937 z m 90,-2 c 0,-0.55 -0.19844,-1 -0.44098,-1 -0.24254,0 -0.7191,0.45 -1.05902,1 -0.33992,0.55 -0.14148,1 0.44098,1 0.58246,0 1.05902,-0.45 1.05902,-1 z m -93.53685,-4.05962 c -0.27268,-0.4412 -0.0384,-1.08484 0.52054,-1.4303 1.31265,-0.81126 1.32603,-4.51008 0.0163,-4.51008 -0.55,0 -1,1.125 -1,2.5 0,1.92139 -0.52075,2.50354 -2.25,2.51531 -4.07197,0.0277 -4.71946,1.51935 -0.70521,1.62461 2.15277,0.0564 3.69104,-0.25835 3.41836,-0.69954 z m 3.19913,-2.19038 c -0.27741,-0.6875 -0.50439,-0.125 -0.50439,1.25 0,1.375 0.22698,1.9375 0.50439,1.25 0.27741,-0.6875 0.27741,-1.8125 0,-2.5 z m 79.33772,0.80902 c 0,-0.24254 -0.45,-0.7191 -1,-1.05902 -0.55,-0.33992 -1,-0.14148 -1,0.44098 0,0.58246 0.45,1.05902 1,1.05902 0.55,0 1,-0.19844 1,-0.44098 z m -3,-2.05902 c 0,-0.825 -0.17686,-1.5 -0.39301,-1.5 -0.21616,0 -0.65203,0.675 -0.96862,1.5 -0.31658,0.825 -0.13972,1.5 0.39301,1.5 0.53274,0 0.96862,-0.675 0.96862,-1.5 z m -83,-0.5 c 0,-0.55 -0.3375,-1.00614 -0.75,-1.01365 -0.4125,-0.008 -1.875,-0.26591 -3.25,-0.57422 -2.41289,-0.54104 -2.43237,-0.50572 -0.55887,1.01365 2.19245,1.77804 4.55887,2.07611 4.55887,0.57422 z m 2,-3.2 c 0,-1.61542 -0.29571,-1.90429 -1.11287,-1.08713 -0.61207,0.61207 -0.81052,1.60207 -0.44098,2.2 1.03439,1.67368 1.55385,1.30164 1.55385,-1.11287 z m 79.60417,-1.52917 c -1.01652,-1.01651 -1.85525,0.51389 -1.02122,1.86338 0.63003,1.01942 0.86558,1.02021 1.2043,0.004 0.2316,-0.69479 0.14921,-1.53512 -0.18308,-1.86742 z m -82.77548,-1.34916 c 0.32191,-2.37173 0.29679,-2.38043 -1.2182,-0.42167 -1.88719,2.43999 -2.03866,3.80768 -0.36049,3.25501 0.6875,-0.22642 1.39791,-1.50142 1.57869,-2.83334 z m 83.17131,-1.42167 c 0,-0.825 -0.45,-1.5 -1,-1.5 -0.55,0 -1,0.675 -1,1.5 0,0.825 0.45,1.5 1,1.5 0.55,0 1,-0.675 1,-1.5 z m -71.5,-0.5 c -0.33992,-0.55 -1.06803,-1 -1.61803,-1 -0.55,0 -0.72189,0.45 -0.38197,1 0.33992,0.55 1.06803,1 1.61803,1 0.55,0 0.72189,-0.45 0.38197,-1 z m 120.05887,44.4682 c -1.06762,-0.80751 -1.51762,-1.45389 -1,-1.4364 0.51762,0.0175 1.81464,0.6925 2.88225,1.5 1.06762,0.80751 1.51762,1.45389 1,1.4364 -0.51762,-0.0175 -1.81463,-0.6925 -2.88225,-1.5 z M 293.69328,199.67464 c 0.92957,-0.92957 2.2981,-1.31268 3.30663,-0.92568 0.94636,0.36316 1.43198,0.94897 1.07914,1.30182 -0.35284,0.35284 -1.84082,0.76939 -3.30663,0.92567 -2.43317,0.25942 -2.52708,0.14613 -1.07914,-1.30181 z m 5.74104,-0.28986 c 0,-0.46078 2.251,-1.4147 5.00221,-2.11981 2.75122,-0.70512 4.49007,-1.59856 3.86411,-1.98542 -0.62595,-0.38686 -3.12634,-0.0259 -5.55641,0.80209 -2.43007,0.82801 -4.67202,1.25176 -4.98211,0.94167 -0.31009,-0.31009 0.6143,-0.85949 2.0542,-1.22088 1.4399,-0.36139 2.618,-1.05299 2.618,-1.53688 0,-0.48389 0.7875,-0.81381 1.75,-0.73315 3.38317,0.28352 5.36209,-0.17985 4.78132,-1.11955 -0.35404,-0.57286 2.78771,-0.91857 7.92253,-0.87177 l 8.50923,0.0776 -2.20602,2.29205 c -1.21331,1.26063 -2.64534,2.02054 -3.18229,1.68869 -0.58498,-0.36154 -0.49501,-0.76379 0.22448,-1.00362 2.04373,-0.68124 1.32227,-1.83457 -1.04925,-1.67735 -4.15528,0.27547 -8.72222,1.6797 -8.20174,2.52185 0.28368,0.45901 1.23778,0.55752 2.12021,0.2189 1.08048,-0.41462 1.4546,-0.16618 1.14561,0.76079 -0.25236,0.75706 -1.77626,1.40455 -3.38645,1.43888 -1.6102,0.0343 -3.49013,0.41318 -4.17763,0.8419 -0.6875,0.42871 -1.25,0.55934 -1.25,0.29027 0,-0.26906 -1.35,-0.10203 -3,0.37118 -1.65,0.47321 -3,0.48339 -3,0.0226 z m 16.59656,-2.86638 c -0.34605,-0.55992 -0.1419,-1.31919 0.45366,-1.68727 1.53748,-0.95021 2.52947,0.35135 1.24598,1.63484 -0.71818,0.71818 -1.27752,0.73543 -1.69964,0.0524 z m 97.08001,-17.91854 c -1.03565,-0.23436 -1.59996,-0.99496 -1.30617,-1.76055 0.28448,-0.74136 -0.0188,-1.5266 -0.67391,-1.74498 -2.57485,-0.85828 3.25705,-2.69093 6.47165,-2.03369 3.22903,0.6602 3.2547,0.70315 0.83186,1.3917 -1.70286,0.48393 -1.92318,0.74225 -0.69098,0.81015 0.99496,0.0548 1.53239,0.54726 1.1943,1.0943 -0.98105,1.58738 -3.84766,2.69091 -5.82675,2.24307 z m 2.75173,-1.98769 c -0.49777,-0.4125 -1.24088,-1.2 -1.65135,-1.75 -0.42591,-0.57068 -0.7529,-0.24868 -0.76164,0.75 -0.009,0.97279 0.72489,1.75 1.65136,1.75 0.91666,0 1.2594,-0.3375 0.76163,-0.75 z m -17.92546,-1.24105 c -0.72924,-2.29765 0.19415,-4.31425 1.58257,-3.45616 0.52097,0.32197 0.70753,0.97322 0.41459,1.44721 -0.29294,0.47399 -0.0753,1.14446 0.48369,1.48992 1.49804,0.92584 1.23529,2.51008 -0.4163,2.51008 -0.78794,0 -1.71699,-0.89597 -2.06455,-1.99105 z m -58.45985,-4.39589 c -0.55714,-1.46537 -1.69473,-2.92592 -2.52798,-3.24567 -0.83326,-0.31975 -1.51501,-0.96909 -1.51501,-1.44299 0,-0.47389 0.69164,-0.59622 1.53699,-0.27183 1.71724,0.65897 4.91524,6.22854 4.06472,7.07905 -0.30016,0.30017 -1.00159,-0.65318 -1.55872,-2.11856 z m -21.38964,-4.83063 c -0.75102,-2.8719 -0.36141,-3.14585 1.11403,-0.78331 0.65541,1.04949 0.80204,2.14896 0.32583,2.44328 -0.47621,0.29431 -1.12414,-0.45268 -1.43986,-1.65997 z m 27.34665,-2.22341 c 0,-4.40305 1.11981,-5.03921 4.37002,-2.4826 l 2.6051,2.04917 -0.61256,-3.06279 c -0.59372,-2.96859 0.76639,-4.2812 2.13744,-2.0628 0.95729,1.54893 2.30922,1.18346 2.77436,-0.75 0.34691,-1.44203 0.61263,-1.31004 1.50993,0.75 l 1.08894,2.5 0.0634,-2.75 c 0.0733,-3.17914 0.69802,-3.39063 3.23465,-1.09501 1.71933,1.55598 1.82874,1.52254 1.82874,-0.55901 0,-1.22136 0.44835,-1.93691 1,-1.59598 0.55,0.33992 1,1.99324 1,3.67403 0,3.02988 -0.0214,3.042 -2.5,1.41793 -2.38263,-1.56116 -2.5,-1.54308 -2.5,0.38499 -2e-5,1.47821 -0.65741,2.02305 -2.441,2.02305 -1.34254,0 -2.7191,-0.45 -3.05902,-1 -1.0191,-1.64893 -2.60933,-1.12898 -2.29384,0.75 0.36473,2.17219 -4.04811,3.0634 -5.38477,1.0875 -0.72765,-1.07564 -0.87343,-1.04383 -0.74461,0.1625 0.2887,2.70351 -0.0603,4 -1.07678,4 -0.55,0 -1,-1.54844 -1,-3.44098 z m 45.62162,1.72927 c -0.39145,-0.39145 0.32105,-1.51314 1.58333,-2.49264 1.95679,-1.51845 2.07397,-1.92714 0.79505,-2.77297 -1.28521,-0.84999 -1.24941,-0.99424 0.25,-1.00736 2.22796,-0.0195 2.3647,3.81157 0.16615,4.65523 -1.27522,0.48935 -1.32393,0.77254 -0.25,1.45331 1.05204,0.66688 0.99933,0.84875 -0.24948,0.86083 -0.87084,0.008 -1.90361,-0.30496 -2.29505,-0.6964 z m -3.10792,-3.78829 c 0.34531,-1.65 1.04598,-3.4275 1.55706,-3.95 1.50714,-1.54081 1.02852,1.67045 -0.66325,4.45 l -1.52163,2.5 0.62782,-3 z m -5.90313,-0.0724 c -0.78271,-2.03972 1.0428,-5.42756 2.92461,-5.42756 1.78118,0 1.96822,4.0966 0.26482,5.8 -1.61096,1.61096 -2.46667,1.51104 -3.18943,-0.37244 z m 3.38943,-2.98657 c 0,-0.79254 -0.45,-1.44099 -1,-1.44099 -0.55,0 -1,0.92656 -1,2.05902 0,1.13246 0.45,1.7809 1,1.44098 0.55,-0.33991 1,-1.26647 1,-2.05901 z m -6.81113,2.87636 c -1.01249,-0.40524 -0.90766,-0.9706 0.46024,-2.48211 1.52306,-1.68297 1.56668,-2.0868 0.31113,-2.88097 -1.21706,-0.76982 -1.16881,-0.92619 0.28976,-0.93895 1.902,-0.0166 2.39756,2.46644 0.70144,3.5147 -0.7168,0.443 -0.67806,1.09446 0.12245,2.05901 1.18436,1.42708 0.51094,1.68727 -1.88502,0.72832 z m -10.149,-1.76931 c -2.05259,-2.47321 -0.84637,-5.04804 2.36484,-5.04804 3.58571,0 5.55383,2.64011 3.66486,4.91618 -1.64235,1.97891 -4.44591,2.04022 -6.0297,0.13186 z m 4.96013,-2.07942 c 0,-2.05647 -2.98999,-3.10285 -4.03494,-1.41208 -1.10715,1.7914 -0.28758,2.94346 2.09396,2.94346 1.07633,0 1.94098,-0.68218 1.94098,-1.53138 z"
       id="path2993"
       inkscape:connector-curvature="0" />
    <rect
       style="fill:#800000;fill-opacity:0.37681197;stroke:#000000;stroke-width:3;stroke-linejoin:round;stroke-miterlimit:4;stroke-opacity:1;stroke-dasharray:none"
       id="rect3817"
       width="356.58386"
       height="58.588848"
       x="307.3006"
       y="23.781034"
       ry="29.294424"
       transform="matrix(0.83292124,0.55339155,-0.55339155,0.83292124,0,0)" />
    <text
       xml:space="preserve"
       style="font-size:40px;font-style:normal;font-weight:normal;line-height:125%;letter-spacing:0px;word-spacing:0px;fill:#ffffff;fill-opacity:0.43921569;stroke:none;font-family:Sans"
       x="373.05008"
       y="69.362122"
       id="text3813"
       sodipodi:linespacing="125%"
       transform="matrix(0.83292124,0.55339155,-0.55339155,0.83292124,0,0)"><tspan
         sodipodi:role="line"
         id="tspan3815"
         x="373.05008"
         y="69.362122"
         style="font-style:normal;font-variant:normal;font-weight:normal;font-stretch:normal;fill:#ffffff;fill-opacity:0.43921569;font-family:Droid Serif;-inkscape-font-specification:Droid Serif">UOFFISIELL</tspan></text>
    <text
       xml:space="preserve"
       style="font-size:40px;font-style:normal;font-weight:normal;line-height:125%;letter-spacing:0px;word-spacing:0px;fill:#808050;fill-opacity:1;stroke:none;font-family:Sans"
       x="309.27536"
       y="472.44272"
       id="text3819"
       sodipodi:linespacing="125%"><tspan
         sodipodi:role="line"
         id="tspan3821"
         x="309.27536"
         y="472.44272"
         style="font-style:italic;font-variant:normal;font-weight:bold;font-stretch:normal;fill:#808050;fill-opacity:1;font-family:Sans;-inkscape-font-specification:ClearlyU Bold Italic">~TABKEEPER~</tspan></text>
  </g>
</svg>
